<svg xmlns="http://www.w3.org/2000/svg" fill="#444" viewBox="0 0 100 100">
  <path d="M77.6 43.7c-2 0-3.9.4-5.7 1l-8.4-17.8h11.8c-.4 1.5-1.4 3.5-3.5 4.4-1 .4-1.6 1.7-1.1 2.7.4 1.1 1.6 1.6 2.7 1.2 5.9-2.4 6.4-9.1 6.4-10.2.1-.6-.1-1.1-.5-1.6s-1-.7-1.6-.7H60.2c-.7 0-1.4.4-1.7 1-.4.6-.4 1.4-.1 2l4 8.6h-22L35 23.7h12.5c1.1 0 2-.9 2-2.1s-.9-2.1-2-2.1H24.9c-1.1 0-2 .9-2 2.1s.9 2.1 2 2.1h5.4l5.9 11.5-6.3 10.3c-2.3-1.1-4.8-1.8-7.5-1.8-9.6 0-17.4 8-17.4 17.9s7.8 17.9 17.4 17.9c8.9 0 16.2-6.9 17.3-15.8H54.8c-.4 1.5-1.4 3.5-3.5 4.4-1 .4-1.6 1.7-1.1 2.7.3.8 1.1 1.3 1.9 1.3.3 0 .5 0 .8-.2 5.9-2.4 6.4-9.1 6.4-10.2.1-.6-.1-1.1-.5-1.6s-1-.7-1.6-.7h-2.3l9.7-20.9 3.7 7.9c-4.8 3.2-8 8.7-8 15 0 9.9 7.8 17.9 17.4 17.9S95 71.5 95 61.6s-7.8-17.9-17.4-17.9zM22.4 75.3c-7.3 0-13.3-6.1-13.3-13.7s6-13.7 13.3-13.7c1.9 0 3.7.4 5.3 1.1l-7 11.4c-.4.6-.4 1.5-.1 2.1.4.7 1 1.1 1.8 1.1h13.1c-1 6.7-6.5 11.7-13.1 11.7zm13.1-15.8h-9.4l5-8.2c2.3 2.1 3.9 5 4.4 8.2zm4.1 0c-.5-4.7-2.9-8.9-6.3-11.8l5.1-8.2 10.2 20h-4.8zm12.1-3l-9.2-18H60zm25.9 18.8c-7.3 0-13.3-6.1-13.3-13.7 0-4.6 2.3-8.8 5.7-11.2l5.7 12.2c.4.7 1.1 1.2 1.8 1.2.3 0 .6-.1.9-.2 1-.5 1.4-1.8.9-2.8l-5.7-12.2c1.2-.4 2.5-.6 3.9-.6 7.3 0 13.3 6.1 13.3 13.7s-5.9 13.6-13.2 13.6z"/>
</svg>